<?xml version="1.0" standalone="no"?><!DOCTYPE svg PUBLIC "-//W3C//DTD SVG 1.1//EN" "http://www.w3.org/Graphics/SVG/1.1/DTD/svg11.dtd"><svg t="1508808740886" class="icon" style="" viewBox="0 0 1038 1024" version="1.1" xmlns="http://www.w3.org/2000/svg" p-id="3726" xmlns:xlink="http://www.w3.org/1999/xlink" width="202.734375" height="200"><defs><style type="text/css"></style></defs><path d="M512.5137 992.947773l-400.163889-427.243641C36.002982 483.564367-0.703011 399.594931 3.51915 315.990814 8.861832 207.764927 81.890079 142.03797 85.031629 139.302673c57.732889-49.288566 119.604028-74.083276 184.099948-74.083276 111.155612 0 200.211904 73.262584 243.253186 117.01404C555.682895 138.354068 644.307352 65.220421 755.938801 65.220421c64.623833 0 126.323057 24.794709 183.706999 73.694419 3.578502 3.123131 76.646658 68.851111 81.94943 177.076998 4.134157 83.604116-32.527834 167.573553-108.874663 249.650897L512.5137 992.947773 512.5137 992.947773 512.5137 992.947773zM131.218554 192.663998c0 0-53.854559 49.610908-57.389058 127.893832-2.62478 63.525825 27.618011 129.791042 90.088808 196.960861l348.594373 372.069017 348.506369-372.069017c62.431911-67.236334 92.89062-133.496433 89.916892-196.98235-3.273557-78.261435-57.345056-127.937834-57.948807-128.432091-43.514049-37.182854-89.784886-56.396451-137.180336-56.396451-118.951159 0-214.598566 119.943766-215.503169 121.169687l-28.694529 36.383652-27.574009-37.133735c-0.387833-0.542352-95.259574-120.336716-214.903511-120.336716C221.868133 135.790686 175.469384 154.942885 131.218554 192.663998L131.218554 192.663998 131.218554 192.663998 131.218554 192.663998zM131.218554 192.663998" p-id="3727"></path></svg>